<svg width="443" height="332" viewBox="0 0 443 332" fill="none" xmlns="http://www.w3.org/2000/svg">
<path d="M23.5633 0.112141C16.2346 1.28474 9.67184 5.32064 5.31879 11.332C0.965746 17.3433 -0.821012 24.8377 0.351586 32.1665C1.52418 39.4952 5.56008 46.058 11.5714 50.411C17.5828 54.7641 25.0772 56.5508 32.4059 55.3782H115.305L120.279 69.1947L142.938 138.277L165.597 207.36C167.808 214.545 177.203 221.176 184.388 221.176H377.819C385.556 221.176 394.399 214.545 396.609 207.36L441.375 69.1947C443.585 62.0101 440.27 55.3782 432.532 55.3782H187.151L166.15 15.5866C163.913 11.0194 160.459 7.15804 156.169 4.42773C151.878 1.69742 146.917 0.204077 141.833 0.112141L31.3006 0.112141C29.646 -0.0373804 27.9812 -0.0373805 26.3266 0.112141C25.2223 0.0457623 24.115 0.0457623 23.0107 0.112141L23.5633 0.112141ZM198.204 276.442C182.73 276.442 170.571 288.601 170.571 304.076C170.571 319.55 182.73 331.709 198.204 331.709C213.679 331.709 225.837 319.55 225.837 304.076C225.837 288.601 213.679 276.442 198.204 276.442ZM364.002 276.442C348.528 276.442 336.369 288.601 336.369 304.076C336.369 319.55 348.528 331.709 364.002 331.709C379.477 331.709 391.635 319.55 391.635 304.076C391.635 288.601 379.477 276.442 364.002 276.442Z" fill="#B0B0B0"/>
</svg>
